# xmcd
#
# Track frame offsets:
#	150
#	27174
#	51753
#	67498
#	99321
#	132335
#	175850
#	208701
#
# Disc length: 3355 seconds
#
# Revision: 1
# Processed by: cddbd v1.5.2PL0 Copyright (c) Steve Scherf et al.
# Submitted via: audiograbber 1.83.01
#
DISCID=720d1908
DTITLE=Grateful Dead - 70-01-24 Honolulu Civic Auditorium, Honolulu HI
DYEAR=1900
DGENRE=
TTITLE0=Cumberland Blues
TTITLE1=Cold Rain and Snow
TTITLE2=Me and My Uncle
TTITLE3=King Bee
TTITLE4=Mason's Children
TTITLE5=Black Peter
TTITLE6=Good Lovin'
TTITLE7=Dancing In The Streets
EXTD=
EXTT0=
EXTT1=
EXTT2=
EXTT3=
EXTT4=
EXTT5=
EXTT6=
EXTT7=
PLAYORDER=
